<svg width="33" height="33" viewBox="0 0 33 33" fill="none" xmlns="http://www.w3.org/2000/svg">
<path d="M23.8425 7.5075C23.5162 7.5075 23.1971 7.60427 22.9258 7.78557C22.6545 7.96688 22.443 8.22457 22.3181 8.52607C22.1932 8.82757 22.1605 9.15933 22.2242 9.4794C22.2879 9.79947 22.445 10.0935 22.6758 10.3242C22.9065 10.555 23.2005 10.7121 23.5206 10.7758C23.8407 10.8395 24.1724 10.8068 24.4739 10.6819C24.7754 10.557 25.0331 10.3455 25.2144 10.0742C25.3957 9.80285 25.4925 9.48384 25.4925 9.1575C25.4925 8.71989 25.3187 8.30021 25.0092 7.99077C24.6998 7.68134 24.2801 7.5075 23.8425 7.5075ZM30.1675 10.835C30.1408 9.69416 29.9271 8.56543 29.535 7.49375C29.1854 6.57681 28.6412 5.74651 27.94 5.06C27.2591 4.35521 26.4269 3.81449 25.5062 3.47875C24.4374 3.07472 23.3074 2.85616 22.165 2.8325C20.7075 2.75 20.24 2.75 16.5 2.75C12.76 2.75 12.2925 2.75 10.835 2.8325C9.69258 2.85616 8.5626 3.07472 7.49375 3.47875C6.5748 3.81789 5.74328 4.35815 5.06 5.06C4.35521 5.74087 3.81449 6.5731 3.47875 7.49375C3.07472 8.5626 2.85616 9.69258 2.8325 10.835C2.75 12.2925 2.75 12.76 2.75 16.5C2.75 20.24 2.75 20.7075 2.8325 22.165C2.85616 23.3074 3.07472 24.4374 3.47875 25.5062C3.81449 26.4269 4.35521 27.2591 5.06 27.94C5.74328 28.6419 6.5748 29.1821 7.49375 29.5212C8.5626 29.9253 9.69258 30.1438 10.835 30.1675C12.2925 30.25 12.76 30.25 16.5 30.25C20.24 30.25 20.7075 30.25 22.165 30.1675C23.3074 30.1438 24.4374 29.9253 25.5062 29.5212C26.4269 29.1855 27.2591 28.6448 27.94 27.94C28.6443 27.256 29.189 26.425 29.535 25.5062C29.9271 24.4346 30.1408 23.3058 30.1675 22.165C30.1675 20.7075 30.25 20.24 30.25 16.5C30.25 12.76 30.25 12.2925 30.1675 10.835ZM27.6925 22C27.6825 22.8728 27.5244 23.7376 27.225 24.5575C27.0055 25.1559 26.6528 25.6966 26.1937 26.1387C25.7478 26.5932 25.2082 26.9451 24.6125 27.17C23.7926 27.4694 22.9278 27.6275 22.055 27.6375C20.68 27.7062 20.1712 27.72 16.555 27.72C12.9387 27.72 12.43 27.72 11.055 27.6375C10.1487 27.6545 9.24632 27.5149 8.3875 27.225C7.81795 26.9886 7.30311 26.6376 6.875 26.1937C6.41862 25.752 6.07041 25.2109 5.8575 24.6125C5.5218 23.7808 5.33561 22.8964 5.3075 22C5.3075 20.625 5.225 20.1162 5.225 16.5C5.225 12.8837 5.225 12.375 5.3075 11C5.31366 10.1077 5.47656 9.22342 5.78875 8.3875C6.03081 7.80713 6.40236 7.28978 6.875 6.875C7.29274 6.40223 7.80902 6.02676 8.3875 5.775C9.22563 5.47256 10.109 5.31448 11 5.3075C12.375 5.3075 12.8837 5.225 16.5 5.225C20.1162 5.225 20.625 5.225 22 5.3075C22.8728 5.31751 23.7376 5.47559 24.5575 5.775C25.1823 6.0069 25.7432 6.38391 26.1937 6.875C26.6443 7.29737 26.9964 7.81376 27.225 8.3875C27.5306 9.22478 27.6888 10.1087 27.6925 11C27.7612 12.375 27.775 12.8837 27.775 16.5C27.775 20.1162 27.7612 20.625 27.6925 22ZM16.5 9.44625C15.1055 9.44897 13.7431 9.86497 12.5849 10.6417C11.4267 11.4184 10.5248 12.521 9.993 13.8102C9.46122 15.0993 9.3235 16.5171 9.59722 17.8845C9.87094 19.2519 10.5438 20.5075 11.5309 21.4926C12.5179 22.4777 13.7748 23.1481 15.1427 23.4192C16.5106 23.6903 17.9282 23.5498 19.2163 23.0155C20.5044 22.4812 21.6052 21.5771 22.3797 20.4174C23.1541 19.2577 23.5675 17.8945 23.5675 16.5C23.5693 15.572 23.3877 14.6528 23.033 13.7953C22.6783 12.9378 22.1575 12.1589 21.5007 11.5033C20.8439 10.8478 20.0639 10.3286 19.2057 9.97553C18.3475 9.6225 17.428 9.44262 16.5 9.44625ZM16.5 21.0787C15.5944 21.0787 14.7092 20.8102 13.9562 20.3071C13.2032 19.804 12.6163 19.0889 12.2698 18.2522C11.9232 17.4156 11.8326 16.4949 12.0092 15.6067C12.1859 14.7185 12.622 13.9027 13.2623 13.2623C13.9027 12.622 14.7185 12.1859 15.6067 12.0092C16.4949 11.8326 17.4156 11.9232 18.2522 12.2698C19.0889 12.6163 19.804 13.2032 20.3071 13.9562C20.8102 14.7092 21.0787 15.5944 21.0787 16.5C21.0787 17.1013 20.9603 17.6967 20.7302 18.2522C20.5001 18.8077 20.1628 19.3125 19.7377 19.7377C19.3125 20.1628 18.8077 20.5001 18.2522 20.7302C17.6967 20.9603 17.1013 21.0787 16.5 21.0787Z" fill="white"/>
</svg>