<svg width="36" height="36" viewBox="0 0 36 36" fill="none" xmlns="http://www.w3.org/2000/svg">
<g clip-path="url(#clip0_2667_1470)">
<path d="M30.0037 4.5H5.99625C5.60033 4.50294 5.22146 4.66153 4.94149 4.94149C4.66153 5.22146 4.50294 5.60033 4.5 5.99625V30.0037C4.50294 30.3997 4.66153 30.7785 4.94149 31.0585C5.22146 31.3385 5.60033 31.4971 5.99625 31.5H18.9225V21.06H15.4125V16.9762H18.9225V13.9725C18.9225 10.485 21.0487 8.58375 24.1763 8.58375C25.2225 8.58375 26.2688 8.58375 27.315 8.74125V12.375H25.1663C23.4675 12.375 23.1413 13.185 23.1413 14.3663V16.965H27.1912L26.6625 21.0487H23.1413V31.5H30.0037C30.3997 31.4971 30.7785 31.3385 31.0585 31.0585C31.3385 30.7785 31.4971 30.3997 31.5 30.0037V5.99625C31.4971 5.60033 31.3385 5.22146 31.0585 4.94149C30.7785 4.66153 30.3997 4.50294 30.0037 4.5Z" fill="black"/>
</g>
<defs>
<clipPath id="clip0_2667_1470">
<rect width="36" height="36" fill="white"/>
</clipPath>
</defs>
</svg>